<svg width="41" height="42" viewBox="0 0 41 42" fill="none" xmlns="http://www.w3.org/2000/svg">
<path d="M37.1562 6.5625H3.84375C3.13506 6.5625 2.5625 7.14902 2.5625 7.875V34.125C2.5625 34.851 3.13506 35.4375 3.84375 35.4375H37.1562C37.8649 35.4375 38.4375 34.851 38.4375 34.125V7.875C38.4375 7.14902 37.8649 6.5625 37.1562 6.5625ZM35.5547 11.107V32.4844H5.44531V11.107L4.34023 10.2252L5.91377 8.15391L7.62744 9.51973H33.3766L35.0902 8.15391L36.6638 10.2252L35.5547 11.107ZM33.3766 9.51562L20.5 19.7695L7.62344 9.51562L5.90977 8.1498L4.33623 10.2211L5.44131 11.1029L19.1187 21.9967C19.512 22.3097 19.9959 22.4796 20.494 22.4796C20.9921 22.4796 21.476 22.3097 21.8693 21.9967L35.5547 11.107L36.6598 10.2252L35.0862 8.15391L33.3766 9.51562Z" fill="#8C2B2B"/>
</svg>
