<svg width="223" height="233" viewBox="0 0 223 233" fill="none" xmlns="http://www.w3.org/2000/svg">
<g filter="url(#filter0_f)">
<path d="M64.812 93.1104L85.8194 63.0582L74.283 54.9803C71.2233 52.8379 67.459 51.9706 63.8182 52.5692C60.1773 53.1678 56.9581 55.1832 54.8688 58.1721L7.60237 125.79C7.12042 126.491 6.84796 127.317 6.81553 128.174C6.7831 129.03 6.99198 129.885 7.41877 130.641C7.84478 131.348 8.44925 131.935 9.17078 132.342C9.89231 132.749 10.7052 132.961 11.5268 132.958L41.2832 132.587L92.9662 168.776C94.3943 169.839 96.0203 170.604 97.7435 171.025C99.4668 171.445 101.251 171.511 102.985 171.22C104.719 170.929 106.366 170.286 107.824 169.331C109.282 168.376 110.52 167.13 111.462 165.669L114.429 161.424L72.1293 131.805C66.0101 127.521 61.8014 121.037 60.4291 113.78C59.0568 106.523 60.6334 99.0882 64.812 93.1104V93.1104Z" fill="#78A7EB"/>
<path d="M192.646 98.6928L127.273 52.9182C124.214 50.7758 120.45 49.9085 116.809 50.5071C113.168 51.1056 109.949 53.121 107.859 56.1099L76.3483 101.188C74.259 104.177 73.4707 107.895 74.1569 111.523C74.843 115.151 76.9473 118.393 80.007 120.536L132.113 157.021L140.752 183.828C141.023 184.606 141.494 185.302 142.119 185.848C142.744 186.394 143.499 186.768 144.309 186.934C145.176 187.088 146.064 186.996 146.87 186.669C147.676 186.343 148.367 185.795 148.864 185.088L195.92 117.771C197.967 114.847 198.769 111.222 198.158 107.662C197.547 104.102 195.571 100.886 192.646 98.6928V98.6928Z" fill="#78A7EB"/>
</g>
<defs>
<filter id="filter0_f" x="-20.5923" y="-9.80469" width="252.97" height="252.169" filterUnits="userSpaceOnUse" color-interpolation-filters="sRGB">
<feFlood flood-opacity="0" result="BackgroundImageFix"/>
<feBlend mode="normal" in="SourceGraphic" in2="BackgroundImageFix" result="shape"/>
<feGaussianBlur stdDeviation="5" result="effect1_foregroundBlur"/>
</filter>
</defs>
</svg>
