<svg width="205" height="199" viewBox="0 0 205 199" fill="none" xmlns="http://www.w3.org/2000/svg">
<g filter="url(#filter0_f)">
<path d="M108.12 98.6437C112.405 97.8882 116.834 98.812 120.432 101.212C124.031 103.612 126.505 107.292 127.309 111.441L128.81 119.245C133.634 138.211 120.244 150.453 91.9908 155.435C63.8325 160.39 46.4316 153.717 42.7482 134.712L41.1814 126.628C40.3771 122.478 41.3081 118.198 43.7694 114.73C46.2307 111.261 50.0208 108.888 54.3059 108.133L108.12 98.6437Z" fill="#CFA4F2"/>
<path d="M151.696 138.585L145.814 137.778L144.884 137.694C143.188 137.646 141.52 138.097 140.102 138.989C138.683 139.881 137.58 141.171 136.94 142.687L133.297 150.729L132.953 151.599C132.337 153.482 132.356 155.509 133.009 157.387C133.661 159.266 134.912 160.898 136.582 162.048L140.55 164.704L141.559 165.313C145.304 167.393 149.804 167.506 153.587 165.587C163.332 160.633 171.055 149.67 176.744 132.702C182.439 115.7 182.967 102.047 178.324 91.7115C176.368 87.364 172.329 84.3437 167.717 83.7654L163.07 83.1824L162.2 83.1201C160.2 83.0998 158.259 83.7551 156.712 84.9731C155.164 86.1912 154.108 87.8956 153.724 89.7926L151.776 98.4207L151.614 99.3662C151.41 101.067 151.697 102.791 152.443 104.348C153.189 105.906 154.366 107.235 155.841 108.189L164.941 113.931L165.024 115.793C165.081 119.537 164.372 123.352 162.946 127.26C161.265 131.806 158.848 135.771 155.668 139.136L151.696 138.585V138.585Z" fill="#CFA4F2"/>
<path d="M134.631 120.258C135.261 123.513 135.434 126.589 135.162 129.495C138.123 127.873 141.541 127.001 145.147 127.098L145.46 127.108L147 127.236L150.708 127.747C152.195 125.187 153.225 122.402 153.756 119.507L149.885 117.061C146.698 115.025 144.153 112.176 142.535 108.831C140.917 105.485 140.289 101.776 140.721 98.1164L140.757 97.8405L141.005 96.362L141.843 92.6975L122.358 96.1333C127.579 99.1609 131.484 104.254 132.693 110.492L134.127 118.006L134.641 120.256L134.631 120.258Z" fill="#CFA4F2"/>
<path d="M69.1046 40.7992C76.2464 39.5399 83.6283 41.0796 89.6261 45.0795C95.624 49.0795 99.7466 55.2121 101.087 62.1282C102.428 69.0443 100.876 76.1774 96.7737 81.9583C92.6715 87.7392 86.3547 91.6944 79.2128 92.9537C72.071 94.213 64.6892 92.6733 58.6913 88.6733C52.6934 84.6733 48.5708 78.5407 47.2304 71.6246C45.89 64.7085 47.4415 57.5754 51.5437 51.7945C55.6459 46.0136 61.9628 42.0585 69.1046 40.7992V40.7992Z" fill="#CFA4F2"/>
<path d="M124.983 41.7337C130.696 40.7262 136.602 41.958 141.4 45.158C146.198 48.3579 149.496 53.264 150.569 58.7969C151.641 64.3298 150.4 70.0363 147.118 74.661C143.836 79.2857 138.783 82.4498 133.069 83.4573C127.356 84.4647 121.45 83.233 116.652 80.033C111.854 76.833 108.556 71.9269 107.483 66.394C106.411 60.8611 107.652 55.1546 110.934 50.5299C114.216 45.9052 119.269 42.7411 124.983 41.7337Z" fill="#CFA4F2"/>
</g>
<defs>
<filter id="filter0_f" x="-9.56689" y="-9.05566" width="224.688" height="217.283" filterUnits="userSpaceOnUse" color-interpolation-filters="sRGB">
<feFlood flood-opacity="0" result="BackgroundImageFix"/>
<feBlend mode="normal" in="SourceGraphic" in2="BackgroundImageFix" result="shape"/>
<feGaussianBlur stdDeviation="5" result="effect1_foregroundBlur"/>
</filter>
</defs>
</svg>
