<svg width="109" height="105" viewBox="0 0 109 105" fill="none" xmlns="http://www.w3.org/2000/svg">
<g filter="url(#filter0_f)">
<path d="M57.5186 51.8027C59.7907 51.4021 62.1391 51.8919 64.0472 53.1644C65.9554 54.437 67.2669 56.388 67.6934 58.5882L68.4895 62.7262C71.0469 72.7825 63.9473 79.2736 48.9667 81.9151C34.0365 84.542 24.81 81.0039 22.857 70.9269L22.0262 66.6406C21.5998 64.4403 22.0934 62.171 23.3985 60.3319C24.7035 58.4928 26.7131 57.2345 28.9852 56.8339L57.5186 51.8027Z" fill="#CFA4F2"/>
<path d="M80.6241 72.9807L77.5052 72.5526L77.0122 72.5079C76.1131 72.4824 75.2287 72.7219 74.4765 73.1948C73.7242 73.6676 73.1395 74.3514 72.8002 75.1553L70.8684 79.4197L70.686 79.8808C70.3593 80.8792 70.3696 81.954 70.7155 82.9499C71.0614 83.9458 71.725 84.8113 72.6104 85.4214L74.7143 86.8293L75.2494 87.1525C77.2351 88.2552 79.621 88.3149 81.627 87.2977C86.7939 84.6707 90.8886 78.8581 93.9054 69.8609C96.9247 60.8462 97.205 53.607 94.7431 48.1269C93.7057 45.8217 91.5643 44.2203 89.1187 43.9136L86.6548 43.6045L86.1936 43.5714C85.1331 43.5607 84.104 43.9082 83.2836 44.554C82.4632 45.1998 81.9029 46.1036 81.6994 47.1094L80.6665 51.6843L80.5805 52.1856C80.4724 53.0872 80.6246 54.0016 81.0203 54.8273C81.4159 55.653 82.0396 56.3579 82.8221 56.8638L87.6471 59.9082L87.6908 60.8957C87.7211 62.8808 87.3453 64.9033 86.5893 66.9756C85.698 69.3863 84.4162 71.4884 82.7302 73.2728L80.6241 72.9807V72.9807Z" fill="#CFA4F2"/>
<path d="M71.5756 63.2632C71.9101 64.9888 72.0017 66.6199 71.8575 68.1611C73.4272 67.3008 75.2395 66.8383 77.1514 66.8901L77.3177 66.8951L78.1341 66.9628L80.1003 67.2338C80.8885 65.8766 81.4348 64.3998 81.7165 62.8649L79.6638 61.5682C77.9738 60.4887 76.6245 58.9778 75.7666 57.204C74.9087 55.4303 74.5757 53.4635 74.805 51.5231L74.8239 51.3767L74.9555 50.5928L75.3999 48.6498L65.0682 50.4716C67.8364 52.0769 69.9073 54.7775 70.5484 58.0849L71.3087 62.069L71.5813 63.2622L71.5756 63.2632Z" fill="#CFA4F2"/>
<path d="M35.1478 20.5748C38.9346 19.9071 42.8486 20.7235 46.0288 22.8444C49.2091 24.9652 51.395 28.2169 52.1057 31.884C52.8165 35.5511 51.9938 39.3333 49.8187 42.3985C47.6436 45.4637 44.2942 47.5608 40.5074 48.2285C36.7206 48.8962 32.8066 48.0798 29.6264 45.9589C26.4461 43.838 24.2602 40.5864 23.5495 36.9193C22.8387 33.2521 23.6614 29.47 25.8365 26.4048C28.0116 23.3396 31.361 21.2425 35.1478 20.5748V20.5748Z" fill="#CFA4F2"/>
<path d="M66.46 21.6274C69.4894 21.0932 72.6206 21.7463 75.1648 23.443C77.709 25.1398 79.4578 27.7411 80.0264 30.6748C80.5949 33.6085 79.9368 36.6342 78.1967 39.0863C76.4566 41.5385 73.7771 43.2162 70.7477 43.7504C67.7183 44.2845 64.587 43.6314 62.0429 41.9347C59.4987 40.238 57.7499 37.6367 57.1813 34.703C56.6128 31.7693 57.2709 28.7435 59.011 26.2914C60.7511 23.8393 63.4305 22.1616 66.46 21.6274Z" fill="#CFA4F2"/>
</g>
<defs>
<filter id="filter0_f" x="-9.57959" y="-10.0001" width="128.531" height="124.605" filterUnits="userSpaceOnUse" color-interpolation-filters="sRGB">
<feFlood flood-opacity="0" result="BackgroundImageFix"/>
<feBlend mode="normal" in="SourceGraphic" in2="BackgroundImageFix" result="shape"/>
<feGaussianBlur stdDeviation="5" result="effect1_foregroundBlur"/>
</filter>
</defs>
</svg>
