<svg width="124" height="97" viewBox="0 0 124 97" fill="none" xmlns="http://www.w3.org/2000/svg">
<g filter="url(#filter0_f)">
<path d="M26.9226 60.5196C26.4623 58.8462 23.8535 58.8462 23.3913 60.5196L23.2568 61.013C23.1781 61.2998 23.0165 61.5621 22.7889 61.7728C22.5613 61.9835 22.276 62.135 21.9624 62.2114C21.6489 62.2877 21.3186 62.2863 21.0059 62.2073C20.6931 62.1282 20.4093 61.9744 20.1839 61.7618L19.7955 61.3978C18.4788 60.1573 16.2187 61.346 16.7397 63.0039L16.8912 63.4939C16.9803 63.7778 16.9844 64.0782 16.9032 64.364C16.8219 64.6498 16.6582 64.9106 16.4291 65.1195C16.1999 65.3283 15.9136 65.4776 15.5998 65.5518C15.286 65.6261 14.9562 65.6226 14.6444 65.5417L14.1063 65.402C12.2876 64.9275 10.9804 66.9857 12.3425 68.1848L12.7423 68.5384C12.9758 68.7437 13.1447 69.0022 13.2315 69.287C13.3183 69.5718 13.3199 69.8725 13.236 70.158C13.1521 70.4436 12.9858 70.7034 12.7544 70.9107C12.523 71.118 12.235 71.2651 11.9201 71.3367L11.3782 71.4592C9.54058 71.8784 9.54058 74.2541 11.3782 74.675L11.9201 74.7975C12.235 74.8692 12.523 75.0163 12.7544 75.2235C12.9858 75.4308 13.1521 75.6907 13.236 75.9762C13.3199 76.2617 13.3183 76.5625 13.2315 76.8473C13.1447 77.1321 12.9758 77.3905 12.7423 77.5958L12.3425 77.9495C10.9804 79.1485 12.2857 81.2067 14.1063 80.7322L14.6444 80.5942C14.9563 80.513 15.2864 80.5092 15.6005 80.5832C15.9146 80.6573 16.2012 80.8065 16.4306 81.0155C16.66 81.2244 16.8239 81.4854 16.9052 81.7714C16.9865 82.0574 16.9824 82.358 16.8931 82.6421L16.7397 83.1303C16.2187 84.7865 18.4788 85.9769 19.7955 84.7365L20.1839 84.3724C20.4093 84.1598 20.6931 84.006 21.0059 83.9269C21.3186 83.8479 21.6489 83.8465 21.9624 83.9229C22.276 83.9993 22.5613 84.1507 22.7889 84.3614C23.0165 84.5721 23.1781 84.8344 23.2568 85.1212L23.3913 85.6146C23.8516 87.2881 26.4604 87.2881 26.9226 85.6146L27.0571 85.1212C27.1358 84.8344 27.2974 84.5721 27.525 84.3614C27.7526 84.1507 28.0379 83.9993 28.3515 83.9229C28.665 83.8465 28.9953 83.8479 29.308 83.9269C29.6208 84.006 29.9046 84.1598 30.13 84.3724L30.5184 84.7365C31.8351 85.9769 34.0952 84.7882 33.5742 83.1303L33.4227 82.6403C33.3334 82.3563 33.3293 82.0557 33.4106 81.7696C33.4919 81.4836 33.6558 81.2226 33.8852 81.0137C34.1146 80.8048 34.4012 80.6556 34.7153 80.5815C35.0294 80.5075 35.3595 80.5112 35.6714 80.5925L36.2076 80.7322C38.0263 81.2067 39.3335 79.1485 37.9713 77.9495L37.5716 77.5958C37.3381 77.3905 37.1692 77.1321 37.0824 76.8473C36.9956 76.5625 36.994 76.2617 37.0779 75.9762C37.1618 75.6907 37.3281 75.4308 37.5595 75.2235C37.7909 75.0163 38.0789 74.8692 38.3938 74.7975L38.9356 74.675C40.7733 74.2558 40.7733 71.8802 38.9356 71.4592L38.3938 71.3367C38.0789 71.2651 37.7909 71.118 37.5595 70.9107C37.3281 70.7034 37.1618 70.4436 37.0779 70.158C36.994 69.8725 36.9956 69.5718 37.0824 69.287C37.1692 69.0022 37.3381 68.7437 37.5716 68.5384L37.9713 68.1848C39.3335 66.9857 38.0282 64.9275 36.2076 65.402L35.6695 65.54C35.3578 65.6211 35.0279 65.6248 34.7141 65.5508C34.4002 65.4768 34.1138 65.3278 33.8844 65.1191C33.6551 64.9104 33.4912 64.6497 33.4097 64.364C33.3281 64.0782 33.332 63.7778 33.4208 63.4939L33.5742 63.0039C34.0952 61.3477 31.8351 60.1573 30.5184 61.3978L30.13 61.7618C29.9046 61.9744 29.6208 62.1282 29.308 62.2073C28.9953 62.2863 28.665 62.2877 28.3515 62.2114C28.0379 62.135 27.7526 61.9835 27.525 61.7728C27.2974 61.5621 27.1358 61.2998 27.0571 61.013L26.9226 60.5196ZM25.1569 81.688C23.9024 81.7042 22.6567 81.4931 21.4925 81.0671C20.3283 80.641 19.2686 80.0085 18.3751 79.2063C17.4817 78.4041 16.7722 77.4482 16.2879 76.3941C15.8037 75.3401 15.5543 74.2089 15.5543 73.0662C15.5543 71.9236 15.8037 70.7924 16.2879 69.7384C16.7722 68.6843 17.4817 67.7284 18.3751 66.9262C19.2686 66.124 20.3283 65.4915 21.4925 65.0654C22.6567 64.6394 23.9024 64.4283 25.1569 64.4445C27.6682 64.4445 30.0766 65.3529 31.8523 66.97C33.6281 68.5871 34.6257 70.7802 34.6257 73.0671C34.6257 75.354 33.6281 77.5472 31.8523 79.1642C30.0766 80.7813 27.6682 81.6897 25.1569 81.6897V81.688Z" fill="#ACA4EF"/>
<path d="M82.0897 14.6265C80.0914 8.45783 70.4917 8.45783 68.4933 14.6265L68.0095 16.1246C67.7109 17.0481 67.1891 17.8991 66.4824 18.6151C65.7757 19.331 64.9019 19.8939 63.9252 20.2623C62.9485 20.6308 61.8937 20.7955 60.838 20.7443C59.7823 20.6932 58.7526 20.4275 57.8243 19.9668L56.3243 19.2178C50.1165 16.1422 43.328 22.3242 46.7101 27.9729L47.5278 29.3432C49.6858 32.9563 47.6391 37.4551 43.3086 38.6183L41.6635 39.0589C34.8895 40.8787 34.8895 49.6206 41.6635 51.4404L43.3086 51.881C44.3227 52.1529 45.2572 52.628 46.0434 53.2716C46.8297 53.9152 47.4477 54.7109 47.8523 55.6003C48.2569 56.4897 48.4378 57.4503 48.3816 58.4117C48.3255 59.373 48.0338 60.3107 47.5278 61.156L46.7053 62.522C43.328 68.1751 50.1165 74.357 56.3195 71.2771L57.8243 70.5324C58.7526 70.0717 59.7823 69.8061 60.838 69.7549C61.8937 69.7038 62.9485 69.8685 63.9252 70.2369C64.9019 70.6054 65.7757 71.1682 66.4824 71.8842C67.1891 72.6002 67.7109 73.4511 68.0095 74.3747L68.4933 75.8728C70.4917 82.0415 80.0914 82.0415 82.0897 75.8728L82.5735 74.3747C82.8721 73.4511 83.3939 72.6002 84.1006 71.8842C84.8074 71.1682 85.6811 70.6054 86.6578 70.2369C87.6345 69.8685 88.6894 69.7038 89.745 69.7549C90.8007 69.8061 91.8305 70.0717 92.7587 70.5324L94.2587 71.2815C100.467 74.357 107.255 68.1751 103.873 62.5264L103.055 61.156C102.549 60.3107 102.258 59.373 102.201 58.4117C102.145 57.4503 102.326 56.4897 102.731 55.6003C103.135 54.7109 103.753 53.9152 104.54 53.2716C105.326 52.628 106.26 52.1529 107.274 51.881L108.92 51.4404C115.694 49.6206 115.694 40.8787 108.92 39.0589L107.274 38.6183C106.26 38.3464 105.326 37.8712 104.54 37.2277C103.753 36.5841 103.135 35.7884 102.731 34.899C102.326 34.0096 102.145 33.049 102.201 32.0876C102.258 31.1263 102.549 30.1886 103.055 29.3432L103.878 27.9773C107.255 22.3242 100.467 16.1422 94.2635 19.2222L92.7587 19.9668C91.8305 20.4275 90.8007 20.6932 89.745 20.7443C88.6894 20.7955 87.6345 20.6308 86.6578 20.2623C85.6811 19.8939 84.8074 19.331 84.1006 18.6151C83.3939 17.8991 82.8721 17.0481 82.5735 16.1246L82.0897 14.6265V14.6265ZM75.2915 58.1598C71.5315 58.1598 67.9256 56.7996 65.2669 54.3785C62.6082 51.9574 61.1145 48.6736 61.1145 45.2496C61.1145 41.8256 62.6082 38.5419 65.2669 36.1208C67.9256 33.6996 71.5315 32.3395 75.2915 32.3395C79.0502 32.3395 82.6549 33.6992 85.3127 36.1195C87.9705 38.5398 89.4637 41.8224 89.4637 45.2452C89.4637 48.6681 87.9705 51.9507 85.3127 54.371C82.6549 56.7913 79.0502 58.151 75.2915 58.151V58.1598Z" fill="#9BA5EE"/>
</g>
<defs>
<filter id="filter0_f" x="0" y="0" width="124" height="96.8697" filterUnits="userSpaceOnUse" color-interpolation-filters="sRGB">
<feFlood flood-opacity="0" result="BackgroundImageFix"/>
<feBlend mode="normal" in="SourceGraphic" in2="BackgroundImageFix" result="shape"/>
<feGaussianBlur stdDeviation="5" result="effect1_foregroundBlur"/>
</filter>
</defs>
</svg>
