<svg width="251" height="191" viewBox="0 0 251 191" fill="none" xmlns="http://www.w3.org/2000/svg">
<g filter="url(#filter0_f)">
<path d="M48.3889 122.258C47.3708 118.557 41.6015 118.557 40.5792 122.258L40.2817 123.349C40.1077 123.983 39.7504 124.563 39.2471 125.029C38.7437 125.495 38.1126 125.83 37.4192 125.999C36.7258 126.168 35.9954 126.165 35.3038 125.99C34.6121 125.815 33.9845 125.475 33.4859 125.005L32.627 124.2C29.7151 121.457 24.7168 124.085 25.8689 127.752L26.2041 128.836C26.4011 129.463 26.4102 130.128 26.2304 130.76C26.0507 131.392 25.6888 131.969 25.182 132.431C24.6752 132.892 24.0421 133.223 23.3481 133.387C22.6542 133.551 21.9246 133.543 21.2351 133.364L20.0452 133.055C16.023 132.006 13.1321 136.558 16.1445 139.21L17.0285 139.992C17.5449 140.446 17.9185 141.017 18.1105 141.647C18.3025 142.277 18.3059 142.942 18.1204 143.574C17.9348 144.205 17.5671 144.78 17.0554 145.238C16.5437 145.696 15.9066 146.022 15.2102 146.18L14.0119 146.451C9.94785 147.378 9.94785 152.632 14.0119 153.563L15.2102 153.834C15.9066 153.992 16.5437 154.318 17.0554 154.776C17.5671 155.234 17.9348 155.809 18.1204 156.441C18.3059 157.072 18.3025 157.737 18.1105 158.367C17.9185 158.997 17.5449 159.568 17.0285 160.022L16.1445 160.805C13.1321 163.456 16.0188 168.008 20.0452 166.959L21.2351 166.654C21.9249 166.474 22.655 166.466 23.3496 166.629C24.0442 166.793 24.678 167.123 25.1853 167.585C25.6927 168.047 26.0551 168.624 26.235 169.257C26.4148 169.889 26.4056 170.554 26.2083 171.182L25.8689 172.262C24.7168 175.925 29.7151 178.558 32.627 175.814L33.4859 175.009C33.9845 174.539 34.6121 174.199 35.3038 174.024C35.9954 173.849 36.7258 173.846 37.4192 174.015C38.1126 174.184 38.7437 174.519 39.2471 174.985C39.7504 175.451 40.1077 176.031 40.2817 176.665L40.5792 177.756C41.5973 181.457 47.3666 181.457 48.3889 177.756L48.6864 176.665C48.8604 176.031 49.2177 175.451 49.721 174.985C50.2243 174.519 50.8555 174.184 51.5489 174.015C52.2423 173.846 52.9727 173.849 53.6643 174.024C54.3559 174.199 54.9836 174.539 55.4822 175.009L56.3411 175.814C59.2529 178.558 64.2513 175.929 63.0991 172.262L62.764 171.179C62.5666 170.55 62.5574 169.886 62.7373 169.253C62.9172 168.621 63.2796 168.043 63.7869 167.581C64.2943 167.119 64.9281 166.789 65.6227 166.626C66.3173 166.462 67.0474 166.47 67.7372 166.65L68.9229 166.959C72.9451 168.008 75.836 163.456 72.8236 160.805L71.9395 160.022C71.4231 159.568 71.0496 158.997 70.8576 158.367C70.6656 157.737 70.6622 157.072 70.8477 156.441C71.0332 155.809 71.401 155.234 71.9127 154.776C72.4244 154.318 73.0615 153.992 73.7579 153.834L74.9562 153.563C79.0202 152.636 79.0202 147.382 74.9562 146.451L73.7579 146.18C73.0615 146.022 72.4244 145.696 71.9127 145.238C71.401 144.78 71.0332 144.205 70.8477 143.574C70.6622 142.942 70.6656 142.277 70.8576 141.647C71.0496 141.017 71.4231 140.446 71.9395 139.992L72.8236 139.21C75.836 136.558 72.9493 132.006 68.9229 133.055L67.733 133.361C67.0436 133.54 66.3141 133.548 65.62 133.385C64.9259 133.221 64.2924 132.891 63.7852 132.43C63.278 131.968 62.9155 131.392 62.7352 130.76C62.5549 130.128 62.5634 129.464 62.7598 128.836L63.0991 127.752C64.2513 124.089 59.2529 121.457 56.3411 124.2L55.4822 125.005C54.9836 125.475 54.3559 125.815 53.6643 125.99C52.9727 126.165 52.2423 126.168 51.5489 125.999C50.8555 125.83 50.2243 125.495 49.721 125.029C49.2177 124.563 48.8604 123.983 48.6864 123.349L48.3889 122.258ZM44.484 169.073C41.7095 169.108 38.9547 168.642 36.38 167.699C33.8052 166.757 31.4618 165.358 29.4858 163.584C27.5099 161.81 25.9408 159.696 24.8699 157.365C23.7989 155.034 23.2474 152.532 23.2474 150.005C23.2474 147.478 23.7989 144.977 24.8699 142.645C25.9408 140.314 27.5099 138.2 29.4858 136.426C31.4618 134.652 33.8052 133.253 36.38 132.311C38.9547 131.369 41.7095 130.902 44.484 130.938C50.0378 130.938 55.3641 132.947 59.2912 136.523C63.2182 140.099 65.4245 144.95 65.4245 150.007C65.4245 155.065 63.2182 159.915 59.2912 163.491C55.3641 167.067 50.0378 169.076 44.484 169.076V169.073Z" fill="#ACA4EF"/>
<path d="M170.393 20.7637C165.974 7.12141 144.744 7.12141 140.324 20.7637L139.254 24.0768C138.594 26.1192 137.44 28.0011 135.877 29.5845C134.314 31.1679 132.382 32.4127 130.222 33.2275C128.062 34.0424 125.729 34.4066 123.394 34.2935C121.06 34.1804 118.782 33.5929 116.729 32.574L113.412 30.9175C99.6832 24.1158 84.6701 37.7873 92.1499 50.2798L93.9583 53.3103C98.7308 61.3008 94.2044 71.2499 84.6273 73.8225L80.9891 74.7969C66.0082 78.8214 66.0082 98.1544 80.9891 102.179L84.6273 103.153C86.8701 103.755 88.9367 104.806 90.6755 106.229C92.4143 107.652 93.7812 109.412 94.676 111.379C95.5707 113.346 95.9707 115.47 95.8465 117.596C95.7223 119.722 95.0772 121.796 93.9583 123.666L92.1392 126.686C84.6701 139.189 99.6832 152.86 113.401 146.049L116.729 144.402C118.782 143.383 121.06 142.795 123.394 142.682C125.729 142.569 128.062 142.933 130.222 143.748C132.382 144.563 134.314 145.808 135.877 147.391C137.44 148.975 138.594 150.857 139.254 152.899L140.324 156.212C144.744 169.854 165.974 169.854 170.393 156.212L171.463 152.899C172.124 150.857 173.278 148.975 174.84 147.391C176.403 145.808 178.336 144.563 180.496 143.748C182.656 142.933 184.989 142.569 187.323 142.682C189.658 142.795 191.935 143.383 193.988 144.402L197.305 146.058C211.034 152.86 226.047 139.188 218.568 126.696L216.759 123.666C215.64 121.796 214.995 119.722 214.871 117.596C214.747 115.47 215.147 113.346 216.042 111.379C216.936 109.412 218.303 107.652 220.042 106.229C221.781 104.806 223.847 103.755 226.09 103.153L229.728 102.179C244.709 98.1544 244.709 78.8214 229.728 74.7969L226.09 73.8225C223.847 73.2211 221.781 72.1703 220.042 70.747C218.303 69.3237 216.936 67.5641 216.042 65.5971C215.147 63.6301 214.747 61.5057 214.871 59.3796C214.995 57.2536 215.64 55.1797 216.759 53.3103L218.578 50.2895C226.047 37.7873 211.034 24.1158 197.316 30.9272L193.988 32.574C191.935 33.5929 189.658 34.1804 187.323 34.2935C184.989 34.4066 182.656 34.0424 180.496 33.2275C178.336 32.4127 176.403 31.1679 174.84 29.5845C173.278 28.0011 172.124 26.1192 171.463 24.0768L170.393 20.7637V20.7637ZM155.359 117.039C147.043 117.039 139.069 114.031 133.189 108.677C127.309 103.322 124.006 96.0602 124.006 88.4879C124.006 80.9156 127.309 73.6535 133.189 68.2991C139.069 62.9446 147.043 59.9366 155.359 59.9366C163.671 59.9366 171.643 62.9436 177.521 68.2962C183.399 73.6488 186.701 80.9085 186.701 88.4782C186.701 96.0479 183.399 103.308 177.521 108.66C171.643 114.013 163.671 117.02 155.359 117.02V117.039Z" fill="#9BA5EE"/>
</g>
<defs>
<filter id="filter0_f" x="0.963867" y="0.531982" width="250" height="190" filterUnits="userSpaceOnUse" color-interpolation-filters="sRGB">
<feFlood flood-opacity="0" result="BackgroundImageFix"/>
<feBlend mode="normal" in="SourceGraphic" in2="BackgroundImageFix" result="shape"/>
<feGaussianBlur stdDeviation="5" result="effect1_foregroundBlur"/>
</filter>
</defs>
</svg>
