<svg width="393" height="418" viewBox="0 0 393 418" fill="none" xmlns="http://www.w3.org/2000/svg">
<g filter="url(#filter0_f)">
<path d="M145.765 377.092C151.167 387.667 163.272 392.751 173.981 387.855C188.887 381.032 203.326 373.212 217.941 365.765C228.569 360.35 232.928 345.994 226.459 334.012C219.207 320.578 212.784 306.679 205.972 293.006L178.167 237.196C176.469 233.782 176.625 232.903 179.401 230.394C185.666 224.626 193.227 220.451 201.446 218.222C216.635 214.158 232.029 219.614 240.593 232.787C244.847 239.317 248.461 246.3 252.097 253.216C261.682 271.34 271.134 289.532 280.625 307.718C286.905 319.768 300.144 324.105 312.281 317.991C325.36 311.411 338.416 304.787 351.456 298.129C363.765 291.829 368.15 278.708 361.913 266.384C342.861 228.799 323.731 191.254 304.634 153.692C304.339 153.113 304.038 152.522 303.693 151.983C301.344 148.199 298.076 145.613 293.557 145.391C290.408 145.175 287.245 145.412 284.163 146.095C272.339 148.918 261.178 154.019 251.304 161.111C243.669 166.587 236.525 172.752 229.16 178.595C219.467 186.284 209.071 192.759 197.486 197.231C182.629 202.992 167.305 203.266 151.757 201.171C144.372 200.14 136.96 199.313 129.53 198.692C120.466 197.978 112.026 200.525 103.829 204.155C95.0069 208.047 86.3602 212.172 78.9148 218.407C73.1141 223.27 71.6184 228.844 74.2656 235.885C74.8241 237.366 75.4641 238.815 76.1825 240.225L145.765 377.092ZM122.822 129.705C120.106 124.318 116.355 119.519 111.784 115.582C107.213 111.645 101.911 108.647 96.1804 106.759C90.4501 104.871 84.4039 104.13 78.3869 104.578C72.3698 105.027 66.4999 106.656 61.1122 109.373C55.7244 112.089 50.9244 115.84 46.9862 120.411C43.048 124.983 40.0487 130.285 38.1596 136.015C36.2704 141.744 35.5285 147.79 35.976 153.806C36.4236 159.823 38.0519 165.692 40.7679 171.078C46.2548 181.957 55.8391 190.209 67.4125 194.021C78.9858 197.832 91.6001 196.89 102.48 191.402C113.361 185.914 121.616 176.33 125.429 164.757C129.243 153.184 128.303 140.572 122.816 129.694L122.822 129.705ZM205.401 62.2357C194.531 67.7107 186.279 77.276 182.457 88.83C178.636 100.384 179.557 112.982 185.02 123.855C187.73 129.266 191.485 134.087 196.066 138.042C200.648 141.996 205.967 145.005 211.717 146.896C217.466 148.787 223.533 149.522 229.569 149.06C235.604 148.597 241.488 146.945 246.883 144.2C257.732 138.68 265.949 129.085 269.735 117.518C273.521 105.951 272.566 93.3554 267.079 82.4927C261.578 71.6364 251.994 63.4058 240.43 59.6062C228.866 55.8067 216.267 56.7483 205.395 62.2246L205.401 62.2357Z" fill="#B2A4EF"/>
</g>
<defs>
<filter id="filter0_f" x="0" y="0.000244141" width="392.712" height="417.622" filterUnits="userSpaceOnUse" color-interpolation-filters="sRGB">
<feFlood flood-opacity="0" result="BackgroundImageFix"/>
<feBlend mode="normal" in="SourceGraphic" in2="BackgroundImageFix" result="shape"/>
<feGaussianBlur stdDeviation="10" result="effect1_foregroundBlur"/>
</filter>
</defs>
</svg>
