<svg width="200" height="202" viewBox="0 0 200 202" fill="none" xmlns="http://www.w3.org/2000/svg">
<g filter="url(#filter0_f)">
<path d="M73.5611 174.953C76.1777 180.075 82.0401 182.538 87.2272 180.167C94.4464 176.862 101.44 173.074 108.519 169.468C113.666 166.845 115.778 159.891 112.644 154.088C109.132 147.582 106.021 140.85 102.721 134.227L89.2543 107.196C88.4322 105.543 88.5075 105.117 89.8524 103.902C92.8866 101.108 96.5488 99.0861 100.529 98.0064C107.886 96.0384 115.342 98.6808 119.49 105.061C121.55 108.224 123.301 111.606 125.062 114.956C129.704 123.734 134.282 132.545 138.879 141.353C141.921 147.189 148.333 149.29 154.211 146.329C160.546 143.142 166.87 139.933 173.185 136.709C179.147 133.657 181.271 127.302 178.25 121.333C169.022 103.13 159.757 84.9449 150.507 66.7521C150.364 66.4716 150.219 66.1857 150.052 65.9244C148.914 64.0918 147.331 62.8394 145.142 62.7317C143.617 62.627 142.085 62.7418 140.593 63.0725C134.866 64.4403 129.46 66.9107 124.678 70.3458C120.98 72.9979 117.519 75.984 113.953 78.8139C109.258 82.5379 104.223 85.6741 98.6115 87.84C91.4155 90.63 83.9937 90.7628 76.4631 89.7483C72.8863 89.2489 69.2965 88.8484 65.6976 88.5474C61.308 88.202 57.2199 89.4355 53.2496 91.1935C48.9769 93.0784 44.789 95.0763 41.1829 98.0961C38.3734 100.452 37.649 103.151 38.9311 106.561C39.2016 107.279 39.5116 107.981 39.8595 108.664L73.5611 174.953ZM62.4488 55.1343C61.1332 52.5254 59.3166 50.2011 57.1027 48.2942C54.8887 46.3874 52.3207 44.9353 49.5453 44.0208C46.7699 43.1064 43.8415 42.7475 40.9272 42.9647C38.0129 43.1819 35.1699 43.9709 32.5604 45.2867C29.9509 46.6025 27.6261 48.4192 25.7187 50.6333C23.8112 52.8473 22.3586 55.4152 21.4436 58.1904C20.5286 60.9656 20.1692 63.8938 20.386 66.8077C20.6028 69.7216 21.3914 72.5642 22.7069 75.1732C25.3644 80.4419 30.0065 84.4389 35.6119 86.2849C41.2173 88.131 47.3269 87.6748 52.5966 85.0168C57.8663 82.3587 61.8645 77.7166 63.7117 72.1115C65.5588 66.5065 65.1035 60.3977 62.446 55.129L62.4488 55.1343ZM102.445 22.4565C97.1803 25.1083 93.1834 29.7411 91.3325 35.3371C89.4816 40.9332 89.9279 47.0347 92.5736 52.3012C93.8865 54.9219 95.7048 57.2571 97.924 59.1723C100.143 61.0875 102.719 62.545 105.504 63.4608C108.289 64.3766 111.227 64.7327 114.15 64.5086C117.073 64.2845 119.924 63.4846 122.536 62.155C127.791 59.4814 131.771 54.8341 133.605 49.2317C135.438 43.6293 134.976 37.5289 132.318 32.2677C129.654 27.0096 125.012 23.0232 119.411 21.1829C113.81 19.3427 107.708 19.7987 102.442 22.4511L102.445 22.4565Z" fill="#B2A4EF"/>
</g>
<defs>
<filter id="filter0_f" x="0.324707" y="0.0703125" width="199.291" height="201.004" filterUnits="userSpaceOnUse" color-interpolation-filters="sRGB">
<feFlood flood-opacity="0" result="BackgroundImageFix"/>
<feBlend mode="normal" in="SourceGraphic" in2="BackgroundImageFix" result="shape"/>
<feGaussianBlur stdDeviation="10" result="effect1_foregroundBlur"/>
</filter>
</defs>
</svg>
