<svg width="41" height="42" viewBox="0 0 37 30" fill="none" xmlns="http://www.w3.org/2000/svg">
<path d="M35.1562 0.5625H1.84375C1.13506 0.5625 0.5625 1.14902 0.5625 1.875V28.125C0.5625 28.851 1.13506 29.4375 1.84375 29.4375H35.1562C35.8649 29.4375 36.4375 28.851 36.4375 28.125V1.875C36.4375 1.14902 35.8649 0.5625 35.1562 0.5625ZM33.5547 5.10703V26.4844H3.44531V5.10703L2.34023 4.2252L3.91377 2.15391L5.62744 3.51973H31.3766L33.0902 2.15391L34.6638 4.2252L33.5547 5.10703ZM31.3766 3.51562L18.5 13.7695L5.62344 3.51562L3.90977 2.1498L2.33623 4.22109L3.44131 5.10293L17.1187 15.9967C17.512 16.3097 17.9959 16.4796 18.494 16.4796C18.9921 16.4796 19.476 16.3097 19.8693 15.9967L33.5547 5.10703L34.6598 4.2252L33.0862 2.15391L31.3766 3.51562Z" fill="#D9D9D9"/>
</svg>
