<svg width="1920" height="1729" viewBox="0 0 1920 1729" fill="none" xmlns="http://www.w3.org/2000/svg">
<g filter="url(#filter0_d)">
<path d="M1215.97 282.051C1220.5 194.454 1019.32 189.989 921.001 187.219L0 167.178V0H1920V1270.45V1662C1844.56 1609.21 1716.49 1487.2 1807.75 1421.5C1899.01 1355.8 1807.75 1234.07 1654.64 1199.08C1413.98 1144.1 1118 1072.29 961.084 940.496C842.273 824.352 1048.7 764.031 1176.31 753.277C1298.9 742.947 1270.75 644.66 1169.21 509.354C1042.28 340.221 1210.32 391.548 1215.97 282.051Z" fill="url(#paint0_linear)"/>
</g>
<defs>
<filter id="filter0_d" x="-36" y="-27" width="2014" height="1756" filterUnits="userSpaceOnUse" color-interpolation-filters="sRGB">
<feFlood flood-opacity="0" result="BackgroundImageFix"/>
<feColorMatrix in="SourceAlpha" type="matrix" values="0 0 0 0 0 0 0 0 0 0 0 0 0 0 0 0 0 0 127 0"/>
<feOffset dx="11" dy="20"/>
<feGaussianBlur stdDeviation="23.5"/>
<feColorMatrix type="matrix" values="0 0 0 0 1 0 0 0 0 1 0 0 0 0 1 0 0 0 0.22 0"/>
<feBlend mode="normal" in2="BackgroundImageFix" result="effect1_dropShadow"/>
<feBlend mode="normal" in="SourceGraphic" in2="effect1_dropShadow" result="shape"/>
</filter>
<linearGradient id="paint0_linear" x1="0" y1="0" x2="1838.83" y2="1747.41" gradientUnits="userSpaceOnUse">
<stop offset="0.265156" stop-color="#5E95E8"/>
<stop offset="0.603594" stop-color="#C591EF"/>
</linearGradient>
</defs>
</svg>
