<svg width="1394" height="1460" viewBox="0 0 1394 1460" fill="none" xmlns="http://www.w3.org/2000/svg">
<g filter="url(#filter0_d)">
<path d="M859.315 258.818C862.377 186.822 726.168 183.153 659.594 180.876L36 164.404V27H1336V1071.19V1393C1284.92 1349.61 1198.2 1249.33 1260 1195.33C1321.79 1141.33 1260 1041.28 1156.33 1012.53C993.385 967.336 792.979 908.32 686.734 799.995C606.289 704.536 746.055 654.958 832.462 646.119C915.462 637.629 896.406 556.847 827.652 445.639C741.709 306.628 855.488 348.814 859.315 258.818Z" fill="url(#paint0_linear)"/>
</g>
<defs>
<filter id="filter0_d" x="0" y="0" width="1394" height="1460" filterUnits="userSpaceOnUse" color-interpolation-filters="sRGB">
<feFlood flood-opacity="0" result="BackgroundImageFix"/>
<feColorMatrix in="SourceAlpha" type="matrix" values="0 0 0 0 0 0 0 0 0 0 0 0 0 0 0 0 0 0 127 0"/>
<feOffset dx="11" dy="20"/>
<feGaussianBlur stdDeviation="23.5"/>
<feColorMatrix type="matrix" values="0 0 0 0 1 0 0 0 0 1 0 0 0 0 1 0 0 0 0.22 0"/>
<feBlend mode="normal" in2="BackgroundImageFix" result="effect1_dropShadow"/>
<feBlend mode="normal" in="SourceGraphic" in2="effect1_dropShadow" result="shape"/>
</filter>
<linearGradient id="paint0_linear" x1="36" y1="27" x2="1505.06" y2="1177.04" gradientUnits="userSpaceOnUse">
<stop offset="0.265156" stop-color="#5E95E8"/>
<stop offset="0.603594" stop-color="#C591EF"/>
</linearGradient>
</defs>
</svg>
