<svg width="800" height="1200" viewBox="0 0 800 1200" fill="none" xmlns="http://www.w3.org/2000/svg">
<g filter="url(#filter0_d)">
<path d="M506.655 203.647C508.54 140.4 424.719 137.176 383.75 135.176L0 120.706V0H800V917.294V1200C768.565 1161.88 715.202 1073.79 753.229 1026.35C791.255 978.918 753.229 891.022 689.435 865.765C589.16 826.064 465.833 774.22 400.452 679.059C350.947 595.2 436.957 551.647 490.13 543.882C541.207 536.424 529.481 465.459 487.17 367.765C434.283 245.647 504.3 282.706 506.655 203.647Z" fill="url(#paint0_linear)"/>
</g>
<defs>
<filter id="filter0_d" x="-36" y="-27" width="894" height="1294" filterUnits="userSpaceOnUse" color-interpolation-filters="sRGB">
<feFlood flood-opacity="0" result="BackgroundImageFix"/>
<feColorMatrix in="SourceAlpha" type="matrix" values="0 0 0 0 0 0 0 0 0 0 0 0 0 0 0 0 0 0 127 0"/>
<feOffset dx="11" dy="20"/>
<feGaussianBlur stdDeviation="23.5"/>
<feColorMatrix type="matrix" values="0 0 0 0 1 0 0 0 0 1 0 0 0 0 1 0 0 0 0.22 0"/>
<feBlend mode="normal" in2="BackgroundImageFix" result="effect1_dropShadow"/>
<feBlend mode="normal" in="SourceGraphic" in2="effect1_dropShadow" result="shape"/>
</filter>
<linearGradient id="paint0_linear" x1="0" y1="0" x2="1120.96" y2="614.725" gradientUnits="userSpaceOnUse">
<stop offset="0.216553" stop-color="#5E95E8"/>
<stop offset="0.553285" stop-color="#C591EF"/>
</linearGradient>
</defs>
</svg>
