<svg width="108" height="80" viewBox="0 0 108 80" fill="none" xmlns="http://www.w3.org/2000/svg">
<g filter="url(#filter0_f)">
<path d="M37.0688 28.9819L46.5806 15.919L41.3571 12.4077C39.9717 11.4765 38.2673 11.0995 36.6187 11.3597C34.9702 11.6198 33.5126 12.4959 32.5666 13.7951L11.1649 43.1866C10.9467 43.4916 10.8233 43.8505 10.8086 44.2229C10.794 44.5953 10.8885 44.9667 11.0818 45.2953C11.2747 45.6027 11.5484 45.8578 11.8751 46.0347C12.2018 46.2116 12.5698 46.304 12.9419 46.3024L26.4152 46.1415L49.8166 61.8719C50.4632 62.3337 51.1995 62.6664 51.9797 62.8491C52.76 63.0318 53.5677 63.0607 54.3528 62.9341C55.1379 62.8075 55.8837 62.528 56.544 62.113C57.2042 61.6979 57.765 61.1561 58.1914 60.5212L59.5349 58.6761L40.3819 45.8015C37.6112 43.9391 35.7056 41.1207 35.0842 37.9664C34.4629 34.8121 35.1767 31.5803 37.0688 28.9819V28.9819Z" fill="#78A7EB"/>
</g>
<g filter="url(#filter1_f)">
<path d="M94.9508 31.4082L65.3507 11.5112C63.9654 10.58 62.2609 10.203 60.6124 10.4632C58.9639 10.7234 57.5063 11.5994 56.5603 12.8986L42.2925 32.493C41.3465 33.7922 40.9895 35.4081 41.3002 36.9852C41.6109 38.5624 42.5637 39.9716 43.9491 40.9028L67.542 56.7619L71.4537 68.4144C71.5762 68.7522 71.7898 69.0552 72.0727 69.2923C72.3556 69.5295 72.6977 69.6924 73.0641 69.7644C73.4568 69.8312 73.8588 69.7914 74.2237 69.6494C74.5886 69.5074 74.9017 69.2691 75.1267 68.962L96.4332 39.701C97.3598 38.4302 97.7231 36.8545 97.4465 35.307C97.1698 33.7595 96.2749 32.3614 94.9508 31.4082V31.4082Z" fill="#5D95E7"/>
</g>
<defs>
<filter id="filter0_f" x="0.807129" y="1.2793" width="68.7277" height="71.7323" filterUnits="userSpaceOnUse" color-interpolation-filters="sRGB">
<feFlood flood-opacity="0" result="BackgroundImageFix"/>
<feBlend mode="normal" in="SourceGraphic" in2="BackgroundImageFix" result="shape"/>
<feGaussianBlur stdDeviation="5" result="effect1_foregroundBlur"/>
</filter>
<filter id="filter1_f" x="31.1907" y="0.382812" width="76.3462" height="79.4132" filterUnits="userSpaceOnUse" color-interpolation-filters="sRGB">
<feFlood flood-opacity="0" result="BackgroundImageFix"/>
<feBlend mode="normal" in="SourceGraphic" in2="BackgroundImageFix" result="shape"/>
<feGaussianBlur stdDeviation="5" result="effect1_foregroundBlur"/>
</filter>
</defs>
</svg>
