<svg width="50" height="50" viewBox="0 0 50 50" fill="none" xmlns="http://www.w3.org/2000/svg">
<path d="M50 44.4444V5.55556C50 2.5 47.4917 0 44.4306 0H5.56944C2.375 0 0 2.36944 0 5.55556V44.4444C0 47.6333 2.375 50 5.56944 50H44.4306C45.9046 49.9978 47.3178 49.4122 48.3614 48.3712C49.405 47.3302 49.9941 45.9185 50 44.4444ZM39.4 29.4639C39.4 29.4639 42.5444 32.5667 43.3194 34.0056C43.3417 34.0361 43.35 34.0639 43.3583 34.075C43.6722 34.6028 43.7528 35.0194 43.5944 35.325C43.3333 35.8333 42.4444 36.0889 42.1417 36.1111H36.5889C36.2 36.1111 35.3944 36.0111 34.4167 35.3361C33.6667 34.8139 32.925 33.95 32.2028 33.1083C31.125 31.8583 30.1917 30.775 29.2528 30.775C29.1337 30.7747 29.0154 30.7944 28.9028 30.8333C28.1889 31.0611 27.2833 32.075 27.2833 34.7833C27.2833 35.6306 26.6167 36.1139 26.1444 36.1139H23.6C22.7333 36.1139 18.2194 35.8111 14.2222 31.5917C9.31667 26.425 4.91111 16.0611 4.87222 15.9694C4.59444 15.3 5.16944 14.9361 5.79444 14.9361H11.4056C12.1583 14.9361 12.4 15.3917 12.5722 15.8C12.7667 16.2639 13.5 18.1361 14.7 20.2417C16.6528 23.6667 17.8556 25.0611 18.8139 25.0611C18.9931 25.0601 19.169 25.0132 19.325 24.925C20.5778 24.2333 20.3444 19.7667 20.2889 18.8444C20.2889 18.6694 20.2861 16.8472 19.6472 15.9722C19.1861 15.3389 18.4056 15.0972 17.9333 15.0056C18.1259 14.7402 18.3793 14.5249 18.6722 14.3778C19.5306 13.95 21.0778 13.8889 22.6167 13.8889H23.4722C25.1417 13.9111 25.575 14.0194 26.1778 14.1722C27.3972 14.4639 27.4222 15.2556 27.3139 17.95C27.2833 18.7167 27.25 19.5861 27.25 20.6056C27.25 20.825 27.2417 21.0667 27.2417 21.3167C27.2028 22.6944 27.1583 24.2528 28.1306 24.8917C28.2564 24.9704 28.4016 25.0127 28.55 25.0139C28.8889 25.0139 29.9028 25.0139 32.65 20.3C33.8583 18.2194 34.7889 15.7639 34.8528 15.5806C34.9498 15.3823 35.0903 15.2086 35.2639 15.0722C35.4062 14.9983 35.5647 14.9611 35.725 14.9639H42.3222C43.0444 14.9639 43.5333 15.0722 43.625 15.3472C43.7833 15.7889 43.5944 17.1361 40.5806 21.2083L39.2389 22.9861C36.5056 26.5639 36.5056 26.7472 39.4 29.4639V29.4639Z" fill="black"/>
</svg>
